<svg id="Layer_1" data-name="Layer 1" xmlns="http://www.w3.org/2000/svg" viewBox="0 0 815.23 815.23"><defs><style>.cls-1{fill:#fff;}.cls-2{fill:#e67ded;}.cls-3{fill:#f9afec;}</style></defs><rect class="cls-1" width="815.23" height="815.23"/><path class="cls-2" d="M1309,540c0,192.75-156.25,349-349,349-191.43,0-346.87-154.12-349-345.06C621.12,727.65,773.28,873.5,959.5,873.5c192.75,0,349-156.25,349-349,0-1.22,0-2.43,0-3.64Q1309,530.37,1309,540Z" transform="translate(-552.39 -132.39)"/><path class="cls-3" d="M1308.48,520.86v-.1C1298.49,337,1146.29,191,960,191c-192.75,0-349,156.25-349,349,0,1.25,0,2.5,0,3.74,0,.07,0,.13,0,.2C621.12,727.65,773.28,873.5,959.5,873.5c192.75,0,349-156.25,349-349C1308.5,523.28,1308.49,522.07,1308.48,520.86ZM959.5,777.5c-134,0-242.67-108.65-242.67-242.67S825.48,292.17,959.5,292.17s242.67,108.64,242.67,242.66S1093.52,777.5,959.5,777.5Z" transform="translate(-552.39 -132.39)"/><path class="cls-1" d="M1202.17,534.83c0,134-108.65,242.67-242.67,242.67S716.83,668.85,716.83,534.83,825.48,292.17,959.5,292.17,1202.17,400.81,1202.17,534.83Z" transform="translate(-552.39 -132.39)"/></svg>