<svg xmlns="http://www.w3.org/2000/svg" xmlns:xlink="http://www.w3.org/1999/xlink" viewBox="0 0 615.68 615.69"><defs><style>.cls-1{fill:url(#linear-gradient);}.cls-2{fill:url(#linear-gradient-2);}</style><linearGradient id="linear-gradient" x1="309.05" x2="306.63" y2="615.69" gradientUnits="userSpaceOnUse"><stop offset="0" stop-color="#f9afec"/><stop offset="0.21" stop-color="#f7abea"/><stop offset="0.41" stop-color="#f19fe4"/><stop offset="0.61" stop-color="#e68cdb"/><stop offset="0.81" stop-color="#d871ce"/><stop offset="1" stop-color="#c64fbd"/></linearGradient><linearGradient id="linear-gradient-2" x1="309.56" y1="582.23" x2="306.16" y2="116.22" gradientUnits="userSpaceOnUse"><stop offset="0" stop-color="#f9afec"/><stop offset="0.04" stop-color="#f6a9e9"/><stop offset="0.33" stop-color="#e182d6"/><stop offset="0.59" stop-color="#d266c8"/><stop offset="0.83" stop-color="#c955c0"/><stop offset="1" stop-color="#c64fbd"/></linearGradient></defs><g id="Layer_2" data-name="Layer 2"><g id="Layer_1-2" data-name="Layer 1"><path class="cls-1" d="M307.84,0C137.82,0,0,137.83,0,307.84S137.82,615.69,307.84,615.69,615.68,477.86,615.68,307.84,477.86,0,307.84,0Zm0,582.24C177.9,582.24,72.56,476.9,72.56,347S177.9,111.68,307.84,111.68,543.12,217,543.12,347,437.78,582.24,307.84,582.24Z"/><path class="cls-2" d="M307.84,111.68C177.9,111.68,72.56,217,72.56,347S177.9,582.24,307.84,582.24,543.12,476.9,543.12,347,437.78,111.68,307.84,111.68Zm4.76,352.68A156.52,156.52,0,1,1,469.11,307.84,156.52,156.52,0,0,1,312.6,464.36Z"/></g></g></svg>